{
  "accessors": [
    {
      "bufferView": 2,
      "componentType": 5126,
      "count": 988,
      "max": [
        30.821916580200195,
        21.775760650634766,
        6.3440818786621094
      ],
      "min": [
        -31.066928863525391,
        -13.500001907348633,
        -6.344090461730957
      ],
      "type": "VEC3"
    },
    {
      "bufferView": 2,
      "byteOffset": 11856,
      "componentType": 5126,
      "count": 988,
      "max": [
        0.98522359132766724,
        0.96452534198760986,
        0.99945348501205444
      ],
      "min": [
        -0.99287182092666626,
        -1,
        -0.99945348501205444
      ],
      "type": "VEC3"
    },
    {
      "bufferView": 1,
      "componentType": 5126,
      "count": 988,
      "max": [
        0.99950003623962402,
        0.99713921546936035
      ],
      "min": [
        0.00050000002374872565,
        0.00050000002374872565
      ],
      "type": "VEC2"
    },
    {
      "bufferView": 0,
      "componentType": 5125,
      "count": 990,
      "max": [
        987
      ],
      "min": [
        0
      ],
      "type": "SCALAR"
    }
  ],
  "asset": {
    "extras": {
      "author": "Evil_KatZz (https://sketchfab.com/Evil_KatZz)",
      "license": "CC-BY-4.0 (http://creativecommons.org/licenses/by/4.0/)",
      "source": "https://sketchfab.com/3d-models/origami-cat-e52cb1cd4e38477a88c406f111715d71",
      "title": "Origami cat"
    },
    "generator": "Sketchfab-10.11.2",
    "version": "2.0"
  },
  "bufferViews": [
    {
      "buffer": 0,
      "byteLength": 3960,
      "byteOffset": 0,
      "name": "floatBufferViews",
      "target": 34963
    },
    {
      "buffer": 0,
      "byteLength": 7904,
      "byteOffset": 3960,
      "byteStride": 8,
      "name": "floatBufferViews",
      "target": 34962
    },
    {
      "buffer": 0,
      "byteLength": 23712,
      "byteOffset": 11864,
      "byteStride": 12,
      "name": "floatBufferViews",
      "target": 34962
    }
  ],
  "buffers": [
    {
      "byteLength": 35576,
      "uri": "scene.bin"
    }
  ],
  "materials": [
    {
      "doubleSided": true,
      "emissiveFactor": [
        0,
        0,
        0
      ],
      "name": "ORIGAMI_Chat",
      "pbrMetallicRoughness": {
        "baseColorFactor": [
          0.49803900000000001,
          0.49803900000000001,
          0.49803900000000001,
          1
        ],
        "metallicFactor": 0,
        "roughnessFactor": 0.59999999999999998
      }
    }
  ],
  "meshes": [
    {
      "primitives": [
        {
          "attributes": {
            "NORMAL": 1,
            "POSITION": 0,
            "TEXCOORD_0": 2
          },
          "indices": 3,
          "material": 0,
          "mode": 4
        }
      ]
    }
  ],
  "nodes": [
    {
      "children": [
        1
      ],
      "name": "RootNode (gltf orientation matrix)",
      "rotation": [
        -0.70710678118654746,
        -0,
        -0,
        0.70710678118654757
      ]
    },
    {
      "children": [
        2
      ],
      "name": "RootNode (model correction matrix)"
    },
    {
      "children": [
        3
      ],
      "matrix": [
        -1.1920928955078125e-07,
        -1,
        0,
        0,
        -8.9406967163085938e-08,
        0,
        1,
        0,
        -1,
        8.9406967163085938e-08,
        -1.1920928955078125e-07,
        0,
        3.6380149595061084e-06,
        0,
        0,
        1
      ],
      "name": "ORIGAMI_Ch"
    },
    {
      "children": [
        4
      ],
      "matrix": [
        1,
        1.0587911840678717e-22,
        1.7763568394002442e-15,
        0,
        0,
        0.99999999999999645,
        -5.9604644775390413e-08,
        0,
        -1.7763568394002505e-15,
        5.9604644775390413e-08,
        0.99999999999999645,
        0,
        -4.6893139824533137e-06,
        13.5,
        2.1979215034661984e-06,
        1
      ],
      "name": "3DSMeshMatrix"
    },
    {
      "mesh": 0,
      "name": ""
    }
  ],
  "scene": 0,
  "scenes": [
    {
      "name": "OSG_Scene",
      "nodes": [
        0
      ]
    }
  ]
}

